<svg id="visual" viewBox="0 0 900 600" width="900" height="600" xmlns="http://www.w3.org/2000/svg" xmlns:xlink="http://www.w3.org/1999/xlink" version="1.1"><g stroke-width="1" stroke-linejoin="bevel"><path d="M414.1 307L400.1 236L326.3 302Z" fill="#297ea6" stroke="#297ea6"></path><path d="M400.1 236L320.3 232L326.3 302Z" fill="#246688" stroke="#246688"></path><path d="M326.3 302L392.1 384L414.1 307Z" fill="#15384f" stroke="#15384f"></path><path d="M320.3 232L257.5 305L326.3 302Z" fill="#112e42" stroke="#112e42"></path><path d="M326.3 302L311.3 381L392.1 384Z" fill="#0c2435" stroke="#0c2435"></path><path d="M257.5 305L311.3 381L326.3 302Z" fill="#112e42" stroke="#112e42"></path><path d="M492.9 360L492.9 313L414.1 307Z" fill="#19435d" stroke="#19435d"></path><path d="M414.1 307L495.9 226L400.1 236Z" fill="#081a28" stroke="#081a28"></path><path d="M400.1 236L319.3 157L320.3 232Z" fill="#246688" stroke="#246688"></path><path d="M320.3 232L237.5 222L257.5 305Z" fill="#112e42" stroke="#112e42"></path><path d="M407.1 136L319.3 157L400.1 236Z" fill="#112e42" stroke="#112e42"></path><path d="M492.9 313L495.9 226L414.1 307Z" fill="#1d4e6b" stroke="#1d4e6b"></path><path d="M319.3 157L237.5 222L320.3 232Z" fill="#0c2435" stroke="#0c2435"></path><path d="M392.1 384L492.9 360L414.1 307Z" fill="#15384f" stroke="#15384f"></path><path d="M492.9 313L560.7 314L495.9 226Z" fill="#0c2435" stroke="#0c2435"></path><path d="M474.9 133L407.1 136L400.1 236Z" fill="#277297" stroke="#277297"></path><path d="M257.5 305L232.5 377L311.3 381Z" fill="#297ea6" stroke="#297ea6"></path><path d="M166.6 288L232.5 377L257.5 305Z" fill="#15384f" stroke="#15384f"></path><path d="M255.5 434L339.3 450L311.3 381Z" fill="#19435d" stroke="#19435d"></path><path d="M311.3 381L339.3 450L392.1 384Z" fill="#297ea6" stroke="#297ea6"></path><path d="M392.1 384L423.1 452L492.9 360Z" fill="#297ea6" stroke="#297ea6"></path><path d="M258.5 72L253.5 148L319.3 157Z" fill="#297ea6" stroke="#297ea6"></path><path d="M319.3 157L253.5 148L237.5 222Z" fill="#1d4e6b" stroke="#1d4e6b"></path><path d="M495.9 226L474.9 133L400.1 236Z" fill="#205a7a" stroke="#205a7a"></path><path d="M339.3 450L423.1 452L392.1 384Z" fill="#081a28" stroke="#081a28"></path><path d="M573.7 361L560.7 314L492.9 360Z" fill="#246688" stroke="#246688"></path><path d="M492.9 360L560.7 314L492.9 313Z" fill="#081a28" stroke="#081a28"></path><path d="M495.9 226L559.7 155L474.9 133Z" fill="#205a7a" stroke="#205a7a"></path><path d="M232.5 377L255.5 434L311.3 381Z" fill="#277297" stroke="#277297"></path><path d="M423.1 452L494.9 440L492.9 360Z" fill="#277297" stroke="#277297"></path><path d="M157.6 215L166.6 288L237.5 222Z" fill="#277297" stroke="#277297"></path><path d="M237.5 222L166.6 288L257.5 305Z" fill="#277297" stroke="#277297"></path><path d="M232.5 377L151.6 459L255.5 434Z" fill="#081a28" stroke="#081a28"></path><path d="M560.7 314L576.7 227L495.9 226Z" fill="#081a28" stroke="#081a28"></path><path d="M413.1 62L329.3 69L407.1 136Z" fill="#0c2435" stroke="#0c2435"></path><path d="M407.1 136L329.3 69L319.3 157Z" fill="#277297" stroke="#277297"></path><path d="M573.7 435L573.7 361L492.9 360Z" fill="#15384f" stroke="#15384f"></path><path d="M560.7 314L653.5 237L576.7 227Z" fill="#246688" stroke="#246688"></path><path d="M475.9 67L413.1 62L474.9 133Z" fill="#1d4e6b" stroke="#1d4e6b"></path><path d="M474.9 133L413.1 62L407.1 136Z" fill="#19435d" stroke="#19435d"></path><path d="M153.6 134L157.6 215L253.5 148Z" fill="#246688" stroke="#246688"></path><path d="M253.5 148L157.6 215L237.5 222Z" fill="#15384f" stroke="#15384f"></path><path d="M576.7 227L559.7 155L495.9 226Z" fill="#15384f" stroke="#15384f"></path><path d="M255.5 434L343.3 511L339.3 450Z" fill="#081a28" stroke="#081a28"></path><path d="M339.3 450L392.1 519L423.1 452Z" fill="#1d4e6b" stroke="#1d4e6b"></path><path d="M423.1 452L489.9 531L494.9 440Z" fill="#297ea6" stroke="#297ea6"></path><path d="M334.3 0L258.5 72L329.3 69Z" fill="#19435d" stroke="#19435d"></path><path d="M329.3 69L258.5 72L319.3 157Z" fill="#277297" stroke="#277297"></path><path d="M569.7 69L475.9 67L474.9 133Z" fill="#15384f" stroke="#15384f"></path><path d="M95.8 305L153.6 371L166.6 288Z" fill="#0c2435" stroke="#0c2435"></path><path d="M166.6 288L153.6 371L232.5 377Z" fill="#277297" stroke="#277297"></path><path d="M255.5 434L245.5 538L343.3 511Z" fill="#1d4e6b" stroke="#1d4e6b"></path><path d="M343.3 511L392.1 519L339.3 450Z" fill="#246688" stroke="#246688"></path><path d="M494.9 440L573.7 435L492.9 360Z" fill="#0c2435" stroke="#0c2435"></path><path d="M666.5 306L653.5 237L560.7 314Z" fill="#081a28" stroke="#081a28"></path><path d="M564.7 537L573.7 435L494.9 440Z" fill="#15384f" stroke="#15384f"></path><path d="M156.6 82L153.6 134L253.5 148Z" fill="#00101c" stroke="#00101c"></path><path d="M85.8 222L95.8 305L166.6 288Z" fill="#205a7a" stroke="#205a7a"></path><path d="M85.8 222L166.6 288L157.6 215Z" fill="#00101c" stroke="#00101c"></path><path d="M392.1 519L489.9 531L423.1 452Z" fill="#15384f" stroke="#15384f"></path><path d="M475.9 67L392.1 0L413.1 62Z" fill="#19435d" stroke="#19435d"></path><path d="M413.1 62L392.1 0L329.3 69Z" fill="#246688" stroke="#246688"></path><path d="M392.1 0L334.3 0L329.3 69Z" fill="#297ea6" stroke="#297ea6"></path><path d="M258.5 72L156.6 82L253.5 148Z" fill="#15384f" stroke="#15384f"></path><path d="M94.8 364L151.6 459L153.6 371Z" fill="#19435d" stroke="#19435d"></path><path d="M153.6 371L151.6 459L232.5 377Z" fill="#112e42" stroke="#112e42"></path><path d="M666.5 306L560.7 314L573.7 361Z" fill="#19435d" stroke="#19435d"></path><path d="M576.7 227L666.5 149L559.7 155Z" fill="#205a7a" stroke="#205a7a"></path><path d="M559.7 155L569.7 69L474.9 133Z" fill="#081a28" stroke="#081a28"></path><path d="M647.5 85L569.7 69L559.7 155Z" fill="#205a7a" stroke="#205a7a"></path><path d="M475.9 67L505.9 0L392.1 0Z" fill="#15384f" stroke="#15384f"></path><path d="M151.6 459L245.5 538L255.5 434Z" fill="#297ea6" stroke="#297ea6"></path><path d="M343.3 511L330.3 600L392.1 519Z" fill="#081a28" stroke="#081a28"></path><path d="M392.1 519L418.1 600L489.9 531Z" fill="#1d4e6b" stroke="#1d4e6b"></path><path d="M95.8 305L94.8 364L153.6 371Z" fill="#246688" stroke="#246688"></path><path d="M176.6 0L156.6 82L258.5 72Z" fill="#205a7a" stroke="#205a7a"></path><path d="M92.8 150L85.8 222L157.6 215Z" fill="#1d4e6b" stroke="#1d4e6b"></path><path d="M92.8 150L157.6 215L153.6 134Z" fill="#112e42" stroke="#112e42"></path><path d="M0 378L70.8 455L94.8 364Z" fill="#297ea6" stroke="#297ea6"></path><path d="M666.5 386L666.5 306L573.7 361Z" fill="#277297" stroke="#277297"></path><path d="M334.3 0L243.5 0L258.5 72Z" fill="#246688" stroke="#246688"></path><path d="M156.6 82L92.8 150L153.6 134Z" fill="#112e42" stroke="#112e42"></path><path d="M569.7 69L505.9 0L475.9 67Z" fill="#205a7a" stroke="#205a7a"></path><path d="M643.5 441L573.7 361L573.7 435Z" fill="#0c2435" stroke="#0c2435"></path><path d="M643.5 441L666.5 386L573.7 361Z" fill="#15384f" stroke="#15384f"></path><path d="M564.7 537L643.5 441L573.7 435Z" fill="#15384f" stroke="#15384f"></path><path d="M653.5 237L666.5 149L576.7 227Z" fill="#205a7a" stroke="#205a7a"></path><path d="M569.7 69L570.7 0L505.9 0Z" fill="#00101c" stroke="#00101c"></path><path d="M738.4 214L666.5 149L653.5 237Z" fill="#1d4e6b" stroke="#1d4e6b"></path><path d="M489.9 600L564.7 537L489.9 531Z" fill="#0c2435" stroke="#0c2435"></path><path d="M489.9 531L564.7 537L494.9 440Z" fill="#00101c" stroke="#00101c"></path><path d="M245.5 538L330.3 600L343.3 511Z" fill="#246688" stroke="#246688"></path><path d="M330.3 600L418.1 600L392.1 519Z" fill="#081a28" stroke="#081a28"></path><path d="M151.6 459L159.6 528L245.5 538Z" fill="#0c2435" stroke="#0c2435"></path><path d="M245.5 538L232.5 600L330.3 600Z" fill="#081a28" stroke="#081a28"></path><path d="M68.8 536L159.6 528L151.6 459Z" fill="#081a28" stroke="#081a28"></path><path d="M666.5 149L647.5 85L559.7 155Z" fill="#297ea6" stroke="#297ea6"></path><path d="M243.5 0L176.6 0L258.5 72Z" fill="#112e42" stroke="#112e42"></path><path d="M156.6 82L67.8 58L92.8 150Z" fill="#081a28" stroke="#081a28"></path><path d="M660.5 0L570.7 0L569.7 69Z" fill="#1d4e6b" stroke="#1d4e6b"></path><path d="M418.1 600L489.9 600L489.9 531Z" fill="#205a7a" stroke="#205a7a"></path><path d="M94.8 364L70.8 455L151.6 459Z" fill="#1d4e6b" stroke="#1d4e6b"></path><path d="M0 302L94.8 364L95.8 305Z" fill="#19435d" stroke="#19435d"></path><path d="M174.6 600L245.5 538L159.6 528Z" fill="#246688" stroke="#246688"></path><path d="M174.6 600L232.5 600L245.5 538Z" fill="#15384f" stroke="#15384f"></path><path d="M666.5 386L722.4 297L666.5 306Z" fill="#19435d" stroke="#19435d"></path><path d="M666.5 306L722.4 297L653.5 237Z" fill="#277297" stroke="#277297"></path><path d="M666.5 149L748.4 80L647.5 85Z" fill="#112e42" stroke="#112e42"></path><path d="M743.4 389L722.4 297L666.5 386Z" fill="#1d4e6b" stroke="#1d4e6b"></path><path d="M722.4 297L738.4 214L653.5 237Z" fill="#277297" stroke="#277297"></path><path d="M0 217L0 302L85.8 222Z" fill="#277297" stroke="#277297"></path><path d="M85.8 222L0 302L95.8 305Z" fill="#081a28" stroke="#081a28"></path><path d="M0 217L85.8 222L92.8 150Z" fill="#297ea6" stroke="#297ea6"></path><path d="M489.9 600L564.7 600L564.7 537Z" fill="#297ea6" stroke="#297ea6"></path><path d="M564.7 537L663.5 523L643.5 441Z" fill="#00101c" stroke="#00101c"></path><path d="M744.4 460L743.4 389L666.5 386Z" fill="#112e42" stroke="#112e42"></path><path d="M73.8 0L67.8 58L156.6 82Z" fill="#246688" stroke="#246688"></path><path d="M0 133L0 217L92.8 150Z" fill="#00101c" stroke="#00101c"></path><path d="M65.8 600L174.6 600L159.6 528Z" fill="#00101c" stroke="#00101c"></path><path d="M642.5 600L663.5 523L564.7 537Z" fill="#277297" stroke="#277297"></path><path d="M0 302L0 378L94.8 364Z" fill="#1d4e6b" stroke="#1d4e6b"></path><path d="M70.8 455L68.8 536L151.6 459Z" fill="#1d4e6b" stroke="#1d4e6b"></path><path d="M744.4 460L666.5 386L643.5 441Z" fill="#1d4e6b" stroke="#1d4e6b"></path><path d="M818.2 283L809.2 226L738.4 214Z" fill="#081a28" stroke="#081a28"></path><path d="M738.4 214L748.4 158L666.5 149Z" fill="#205a7a" stroke="#205a7a"></path><path d="M647.5 85L660.5 0L569.7 69Z" fill="#00101c" stroke="#00101c"></path><path d="M809.2 226L748.4 158L738.4 214Z" fill="#112e42" stroke="#112e42"></path><path d="M0 517L68.8 536L70.8 455Z" fill="#081a28" stroke="#081a28"></path><path d="M67.8 58L0 133L92.8 150Z" fill="#112e42" stroke="#112e42"></path><path d="M727.4 0L660.5 0L647.5 85Z" fill="#277297" stroke="#277297"></path><path d="M176.6 0L73.8 0L156.6 82Z" fill="#205a7a" stroke="#205a7a"></path><path d="M67.8 58L0 78L0 133Z" fill="#112e42" stroke="#112e42"></path><path d="M0 378L0 450L70.8 455Z" fill="#112e42" stroke="#112e42"></path><path d="M663.5 523L744.4 460L643.5 441Z" fill="#297ea6" stroke="#297ea6"></path><path d="M818.2 283L738.4 214L722.4 297Z" fill="#19435d" stroke="#19435d"></path><path d="M564.7 600L642.5 600L564.7 537Z" fill="#15384f" stroke="#15384f"></path><path d="M663.5 523L721.4 523L744.4 460Z" fill="#297ea6" stroke="#297ea6"></path><path d="M0 0L0 78L67.8 58Z" fill="#277297" stroke="#277297"></path><path d="M748.4 158L748.4 80L666.5 149Z" fill="#205a7a" stroke="#205a7a"></path><path d="M721.4 600L721.4 523L663.5 523Z" fill="#297ea6" stroke="#297ea6"></path><path d="M818.2 283L722.4 297L743.4 389Z" fill="#0c2435" stroke="#0c2435"></path><path d="M748.4 158L804.2 139L748.4 80Z" fill="#112e42" stroke="#112e42"></path><path d="M0 450L0 517L70.8 455Z" fill="#081a28" stroke="#081a28"></path><path d="M68.8 536L65.8 600L159.6 528Z" fill="#1d4e6b" stroke="#1d4e6b"></path><path d="M0 600L65.8 600L68.8 536Z" fill="#246688" stroke="#246688"></path><path d="M833.2 384L818.2 283L743.4 389Z" fill="#297ea6" stroke="#297ea6"></path><path d="M833.2 384L743.4 389L815.2 456Z" fill="#081a28" stroke="#081a28"></path><path d="M834.2 0L727.4 0L748.4 80Z" fill="#205a7a" stroke="#205a7a"></path><path d="M748.4 80L727.4 0L647.5 85Z" fill="#1d4e6b" stroke="#1d4e6b"></path><path d="M809.2 226L804.2 139L748.4 158Z" fill="#00101c" stroke="#00101c"></path><path d="M818.2 77L804.2 139L900 138Z" fill="#246688" stroke="#246688"></path><path d="M73.8 0L0 0L67.8 58Z" fill="#297ea6" stroke="#297ea6"></path><path d="M815.2 456L743.4 389L744.4 460Z" fill="#205a7a" stroke="#205a7a"></path><path d="M900 138L804.2 139L809.2 226Z" fill="#246688" stroke="#246688"></path><path d="M642.5 600L721.4 600L663.5 523Z" fill="#246688" stroke="#246688"></path><path d="M805.2 514L815.2 456L744.4 460Z" fill="#1d4e6b" stroke="#1d4e6b"></path><path d="M805.2 514L744.4 460L721.4 523Z" fill="#1d4e6b" stroke="#1d4e6b"></path><path d="M900 228L809.2 226L818.2 283Z" fill="#205a7a" stroke="#205a7a"></path><path d="M804.2 139L818.2 77L748.4 80Z" fill="#1d4e6b" stroke="#1d4e6b"></path><path d="M0 517L0 600L68.8 536Z" fill="#112e42" stroke="#112e42"></path><path d="M900 389L900 316L833.2 384Z" fill="#0c2435" stroke="#0c2435"></path><path d="M721.4 600L805.2 514L721.4 523Z" fill="#081a28" stroke="#081a28"></path><path d="M900 389L833.2 384L900 454Z" fill="#1d4e6b" stroke="#1d4e6b"></path><path d="M833.2 384L900 316L818.2 283Z" fill="#19435d" stroke="#19435d"></path><path d="M900 316L900 228L818.2 283Z" fill="#246688" stroke="#246688"></path><path d="M900 454L833.2 384L815.2 456Z" fill="#112e42" stroke="#112e42"></path><path d="M900 90L834.2 0L818.2 77Z" fill="#246688" stroke="#246688"></path><path d="M818.2 77L834.2 0L748.4 80Z" fill="#19435d" stroke="#19435d"></path><path d="M900 228L900 138L809.2 226Z" fill="#00101c" stroke="#00101c"></path><path d="M721.4 600L824.2 600L805.2 514Z" fill="#19435d" stroke="#19435d"></path><path d="M805.2 514L900 454L815.2 456Z" fill="#277297" stroke="#277297"></path><path d="M900 540L900 454L805.2 514Z" fill="#277297" stroke="#277297"></path><path d="M900 138L900 90L818.2 77Z" fill="#205a7a" stroke="#205a7a"></path><path d="M824.2 600L900 540L805.2 514Z" fill="#0c2435" stroke="#0c2435"></path><path d="M900 90L900 0L834.2 0Z" fill="#0c2435" stroke="#0c2435"></path><path d="M824.2 600L900 600L900 540Z" fill="#15384f" stroke="#15384f"></path></g></svg>